<svg width="104" height="104" viewBox="0 0 104 104" fill="none" xmlns="http://www.w3.org/2000/svg">
<path d="M19.1815 88.4033L11.8787 6.5H92.1212L84.8087 88.3903L51.9512 97.5L19.1815 88.4033Z" fill="#E44F26"/>
<path d="M52 90.5385L78.5525 83.1773L84.799 13.1982H52V90.5385Z" fill="#F1662A"/>
<path d="M52 43.5727H38.7075L37.791 33.2865H52V23.2407H26.8125L27.053 25.9382L29.5198 53.6185H52V43.5727ZM52 69.6605L51.9545 69.6735L40.768 66.6542L40.053 58.643H29.9682L31.3755 74.412L51.9545 80.1255L52 80.1125V69.6605Z" fill="#EBEBEB"/>
<path d="M51.9642 43.5727V53.6185H64.3337L63.1702 66.6477L51.9642 69.6702V80.1222L72.5595 74.412L72.709 72.7155L75.0685 46.2702L75.3155 43.5727H51.9642ZM51.9642 23.2407V33.2865H76.2287L76.4302 31.031L76.8885 25.9382L77.129 23.2407H51.9642Z" fill="white"/>
</svg>
