<svg width="104" height="104" viewBox="0 0 104 104" fill="none" xmlns="http://www.w3.org/2000/svg">
<path d="M15.2864 92.7248L7.11749 1.09839H96.8825L88.7055 92.711L51.9456 102.902L15.2864 92.7248Z" fill="#1572B6"/>
<path d="M52.0008 95.113L81.705 86.8775L88.6933 8.58984H52.0008V95.113Z" fill="#33A9DC"/>
<path d="M52.0008 41.7861H66.8712L67.8982 30.2787H52.0008V19.041H80.1799L79.9102 22.0562L77.1477 53.0238H52.0008V41.7861Z" fill="white"/>
<path d="M52.0675 70.971L52.0179 70.9857L39.503 67.6065L38.7026 58.6438H27.4235L28.9973 76.2889L52.0163 82.6776L52.0675 82.6629V70.971Z" fill="#EBEBEB"/>
<path d="M65.9157 52.5483L64.5621 67.5975L52.0284 70.9807V82.6726L75.0661 76.288L75.2351 74.3891L77.1899 52.5483H65.9157Z" fill="white"/>
<path d="M52.039 19.041V30.2787H24.895L24.6699 27.7535L24.158 22.0562L23.8891 19.041H52.039ZM52.0008 41.7878V53.0255H39.6435L39.4184 50.5002L38.9057 44.803L38.6376 41.7878H52.0008Z" fill="#EBEBEB"/>
</svg>
