<svg width="103" height="103" viewBox="0 0 103 103" fill="none" xmlns="http://www.w3.org/2000/svg">
<path fill-rule="evenodd" clip-rule="evenodd" d="M51.4831 12.7792C72.8622 12.7792 90.1936 30.1122 90.1936 51.4938C90.1936 72.8754 72.8622 90.2083 51.4831 90.2083C30.104 90.2083 12.7724 72.8752 12.7724 51.4938C12.7724 30.1124 30.1038 12.7792 51.4831 12.7792ZM67.5181 24.1192C73.7798 24.1192 78.856 29.1957 78.856 35.4581C78.856 41.7204 73.7798 46.7971 67.5181 46.7971C61.2564 46.7971 56.1805 41.7204 56.1805 35.4581C56.1805 29.1957 61.2564 24.1192 67.5181 24.1192ZM19.5774 14.9283L17.5617 12.6144C19.2659 11.1305 21.0658 9.76006 22.9497 8.51208L24.644 11.0709C22.8724 12.2443 21.1799 13.5329 19.5774 14.9283ZM8.66246 80.268C9.92054 82.1454 11.3008 83.9379 12.7943 85.634L15.0967 83.6052C13.6926 82.0102 12.3948 80.3247 11.2117 78.5595L8.66246 80.268ZM36.0677 5.48855L35.0922 2.57869C32.9496 3.29755 30.8564 4.15614 28.8261 5.14893L30.1742 7.90588C32.0838 6.97229 34.0525 6.16479 36.0677 5.48855ZM15.065 19.4188L12.7615 17.3911C11.2689 19.0879 9.88946 20.881 8.63229 22.759L11.1825 24.4659C12.3646 22.7002 13.6615 21.0141 15.0648 19.4186M7.99517 29.9806L5.24355 28.6219C4.24408 30.6485 3.37748 32.7379 2.64923 34.877L5.55456 35.8651C6.23931 33.8526 7.05458 31.8869 7.99517 29.9806ZM28.8682 97.8647C30.8998 98.8531 32.9936 99.7084 35.1363 100.425L36.1087 97.5141C34.0927 96.8403 32.1227 96.0357 30.2114 95.1054L28.8682 97.8647ZM2.65889 68.1598C3.39207 70.2973 4.26351 72.3849 5.26769 74.4093L8.0169 73.0456C7.07205 71.1407 6.25196 69.1764 5.5618 67.1651L2.65889 68.1598ZM99.8675 47.7544L102.927 47.519C102.754 45.2649 102.432 43.0248 101.963 40.8132L98.9607 41.4504C99.4014 43.5295 99.7043 45.6354 99.8675 47.7544ZM3.90112 42.018L0.891996 41.4166C0.449583 43.6328 0.152356 45.8755 0.00221289 48.1304L3.06405 48.3332C3.20543 46.2122 3.48518 44.1026 3.90112 42.018ZM3.06204 54.7026L0 54.9036C0.148798 57.1595 0.446239 59.4031 0.890387 61.6198L3.89911 61.0162C3.48152 58.9323 3.20195 56.8231 3.06224 54.7024M17.5969 90.4081C19.3018 91.8914 21.1024 93.2609 22.9871 94.5076L24.68 91.9477C22.9079 90.7752 21.2148 89.4874 19.6116 88.0928L17.5969 90.4081ZM78.7668 91.6221L80.4891 94.1622C82.3594 92.8936 84.1441 91.5033 85.8318 90.0003L83.7903 87.7087C82.2034 89.1219 80.5253 90.4292 78.7668 91.6221ZM48.5458 3.06337L48.3603 0C46.1045 0.136986 43.8601 0.421749 41.6416 0.852455L42.227 3.86512C44.3135 3.46021 46.4243 3.19238 48.5458 3.06337ZM88.2529 83.1688L90.5784 85.1709C92.0523 83.4577 93.4118 81.6493 94.6481 79.7576L92.0792 78.0788C90.9167 79.8576 89.6385 81.558 88.2529 83.169M95.2058 72.5295L97.9723 73.858C98.9495 71.8207 99.7931 69.722 100.498 67.5751L97.582 66.6185C96.9193 68.6384 96.1255 70.6129 95.2058 72.5295ZM99.936 54.1244C99.8181 56.2467 99.5618 58.3591 99.1685 60.4481L102.184 61.0166C102.602 58.7956 102.875 56.5497 103 54.2932L99.936 54.1244ZM100.122 34.2938C99.3647 32.1646 98.4706 30.0868 97.445 28.0733L94.7107 29.4667C95.676 31.3615 96.5175 33.3168 97.2298 35.3205L100.122 34.2938ZM41.6848 102.147C43.9032 102.577 46.1473 102.862 48.4028 103L48.5888 99.9366C46.4673 99.8074 44.3565 99.5393 42.27 99.1341L41.6848 102.147ZM61.8414 0.955667C59.6275 0.502975 57.3864 0.195367 55.1324 0.0348064L54.9155 3.09616C57.0355 3.24681 59.1434 3.53614 61.2257 3.9623L61.8414 0.955667ZM54.9577 99.9032L55.1758 102.965C57.4306 102.803 59.6723 102.493 61.8863 102.037L61.2661 99.0313C59.1848 99.4604 57.0774 99.7517 54.9577 99.9032ZM74.611 5.38031C72.5911 4.36729 70.507 3.4878 68.3721 2.74749L67.3676 5.64749C69.3754 6.34383 71.3353 7.17089 73.235 8.12337L74.611 5.38031ZM67.4046 97.3344L68.4155 100.232C70.5485 99.4868 72.631 98.6039 74.6499 97.5891L73.2714 94.8471C71.3718 95.8024 69.412 96.6332 67.4046 97.3344ZM90.1946 24.1192C96.4571 24.1192 101.533 19.0421 101.533 12.7792C101.533 6.51624 96.4569 1.43913 90.1946 1.43913C83.9323 1.43913 78.8558 6.51624 78.8558 12.7792C78.8558 19.0421 83.9323 24.1192 90.1946 24.1192Z" fill="#004CA3"/>
</svg>
