<svg width="104" height="104" viewBox="0 0 104 104" fill="none" xmlns="http://www.w3.org/2000/svg">
<g clip-path="url(#clip0_18_13013)">
<path d="M36.9688 104.812C46.6375 104.812 54.4375 97.0125 54.4375 87.3438V69.875H36.9688C27.3 69.875 19.5 77.675 19.5 87.3438C19.5 97.0125 27.3 104.812 36.9688 104.812Z" fill="#0ACF83"/>
<path d="M19.5 52.4062C19.5 42.7375 27.3 34.9375 36.9688 34.9375H54.4375V69.875H36.9688C27.3 69.875 19.5 62.075 19.5 52.4062Z" fill="#A259FF"/>
<path d="M19.5 17.4688C19.5 7.8 27.3 0 36.9688 0H54.4375V34.9375H36.9688C27.3 34.9375 19.5 27.1375 19.5 17.4688Z" fill="#F24E1E"/>
<path d="M54.4375 0H71.9062C81.575 0 89.375 7.8 89.375 17.4688C89.375 27.1375 81.575 34.9375 71.9062 34.9375H54.4375V0Z" fill="#FF7262"/>
<path d="M89.375 52.4062C89.375 62.075 81.575 69.875 71.9062 69.875C62.2375 69.875 54.4375 62.075 54.4375 52.4062C54.4375 42.7375 62.2375 34.9375 71.9062 34.9375C81.575 34.9375 89.375 42.7375 89.375 52.4062Z" fill="#1ABCFE"/>
</g>
<defs>
<clipPath id="clip0_18_13013">
<rect width="104" height="104" fill="white"/>
</clipPath>
</defs>
</svg>
