<svg width="106" height="64" viewBox="0 0 106 64" fill="none" xmlns="http://www.w3.org/2000/svg">
<path d="M52.525 0C38.5181 0 29.7669 7.0006 26.2625 21.0075C31.5134 14.0061 37.6432 11.3807 44.6446 13.1313C48.6423 14.1276 51.4991 17.0263 54.6629 20.2385C59.812 25.464 65.772 31.5134 78.7875 31.5134C92.7936 31.5134 101.546 24.5119 105.05 10.5017C99.7975 17.5067 93.6699 20.1335 86.6671 18.3821C82.6702 17.385 79.8167 14.4871 76.6488 11.2748C71.5029 6.0494 65.5446 0 52.525 0ZM26.2625 31.5134C12.2564 31.5134 3.5044 38.5148 0 52.525C5.25195 45.52 11.3793 42.8932 18.3821 44.6446C22.3798 45.6418 25.2366 48.5397 28.4004 51.7519C33.5495 56.9773 39.5095 63.0267 52.525 63.0267C66.5311 63.0267 75.2831 56.0261 78.7875 42.0192C73.535 49.0209 67.4074 51.6463 60.4046 49.8955C56.4078 48.8991 53.5542 46.0004 50.3862 42.7882C45.2404 37.5628 39.2821 31.5134 26.2625 31.5134Z" fill="#38BDF8"/>
</svg>
