<svg width="105" height="53" viewBox="0 0 105 53" fill="none" xmlns="http://www.w3.org/2000/svg">
<path d="M105 51.5956C101.181 52.4405 98.8191 51.632 96.7002 48.8643C91.943 42.666 86.6918 36.7519 81.6248 30.7284C80.9715 29.9491 80.2931 29.1843 79.4472 28.2156C73.4506 35.2514 67.4623 41.9523 61.8425 48.9226C59.8325 51.4135 57.7219 52.4988 53.9698 51.6175L76.5159 25.3022L55.5276 1.53615C59.1374 0.924336 61.6332 1.23753 63.8442 4.04896C68.727 10.2545 74.1122 16.1614 79.4807 22.4106C84.8827 16.1833 90.201 10.2691 95.2261 4.12179C97.2446 1.63083 99.4137 0.683981 103.04 1.6017C100.293 4.77002 97.6047 7.88736 94.8995 10.9828C91.2479 15.1563 87.6633 19.3807 83.8777 23.4668C82.5293 24.9235 82.7471 25.8703 83.9531 27.2469C90.9548 35.2515 97.8727 43.3361 105 51.5956ZM0.0251257 24.8652C0.628141 22.2358 1.03015 19.5555 1.86767 16.9772C6.8928 1.36863 27.4958 -5.12096 41.6499 4.55152C49.9414 10.2254 52.0017 18.2226 51.5913 27.2396H4.85762C4.1541 43.4162 17.5461 53.1834 34.6147 48.2015C40.603 46.4535 44.129 42.3747 45.8961 37.2763C46.7923 34.7198 48.2747 34.3192 51.0385 35.0475C49.6231 41.4279 46.4154 46.7594 39.7152 50.0952C29.665 55.0917 15.3183 53.4748 7.77219 46.5336C3.31658 42.4548 1.42379 37.3782 0.586265 31.8938C0.460637 31.0197 0.201005 30.1603 0 29.2936C0.0167504 27.8174 0.0251257 26.3413 0.0251257 24.8652ZM4.94137 23.7799H47.1776C46.9012 12.0827 38.526 3.77218 27.0771 3.69935C14.5142 3.61195 5.48576 11.7258 4.94137 23.7799Z" fill="black"/>
</svg>
