<svg width="104" height="104" viewBox="0 0 104 104" fill="none" xmlns="http://www.w3.org/2000/svg">
<path d="M93.7625 24.9438L54.5187 2.35635C53.8687 1.9501 52.975 1.7876 52 1.7876C51.025 1.7876 50.1313 2.03135 49.4813 2.35635L10.4812 25.0251C9.1 25.8376 8.125 27.8688 8.125 29.4126V74.6689C8.125 75.5626 8.2875 76.6189 8.9375 77.5126L95.7125 27.1376C95.225 26.1626 94.4938 25.4313 93.7625 24.9438Z" fill="#9B4F96"/>
<path d="M8.69373 77.4312C9.09998 78.0812 9.66873 78.6499 10.2375 78.9749L49.4 101.644C50.05 102.05 50.9437 102.212 51.9187 102.212C52.8937 102.212 53.7875 101.969 54.4375 101.644L93.4375 78.9749C94.8187 78.1624 95.7937 76.1312 95.7937 74.5874V29.3312C95.7937 28.5999 95.7125 27.7874 95.3062 27.0562L8.69373 77.4312Z" fill="#68217A"/>
<path d="M69.3063 61.8312C65.8938 67.8438 59.3937 71.9062 52 71.9062C41.0312 71.9062 32.0938 62.9688 32.0938 52C32.0938 41.0312 41.0312 32.0938 52 32.0938C59.3937 32.0938 65.8938 36.1562 69.3063 42.25L79.8688 36.1562C74.3438 26.4875 63.9437 19.9062 52 19.9062C34.2875 19.9062 19.9062 34.2875 19.9062 52C19.9062 69.7125 34.2875 84.0938 52 84.0938C63.8625 84.0938 74.2625 77.5937 79.7875 68.0062L69.3063 61.8312ZM78.8125 53.7875L79.5438 50.2938H76.1312V46.475H80.275L81.25 41.4375H85.2313L84.2562 46.3937H87.3438L88.3187 41.4375H92.2188L91.2438 46.3937H93.1937V50.2125H90.5125L89.7812 53.7062H93.1937V57.525H89.05L88.075 62.4H84.0938L85.0687 57.525H81.9813L81.0062 62.4H77.1063L78.0812 57.525H76.1312V53.7062H78.8125V53.7875ZM82.7125 53.7875H85.8L86.5312 50.2938H83.4437L82.7125 53.7875Z" fill="white"/>
</svg>
