<svg width="105" height="88" viewBox="0 0 105 88" fill="none" xmlns="http://www.w3.org/2000/svg">
<path d="M86.3309 28.5226C85.2135 28.1615 84.0865 27.8269 82.9512 27.5192C83.142 26.7851 83.3175 26.0599 83.4734 25.3475C86.0319 13.6481 84.3593 4.22285 78.6462 1.1196C73.1686 -1.85537 64.2104 1.24672 55.1631 8.66367C54.2715 9.39592 53.3996 10.1493 52.5484 10.9231C51.9785 10.4086 51.3986 9.90404 50.8089 9.40973C41.3269 1.47931 31.8228 -1.8631 26.1159 1.24903C20.6432 4.23328 19.0226 13.0937 21.3261 24.1814C21.5552 25.2796 21.814 26.372 22.1021 27.4578C20.7568 27.8179 19.4586 28.2011 18.2163 28.6091C7.09939 32.2602 0 37.9818 0 43.9167C0 50.0463 7.62152 56.1945 19.2002 59.9224C20.139 60.2234 21.0855 60.5023 22.0389 60.7589C21.7294 61.9283 21.4545 63.1056 21.2145 64.2895C19.0185 75.1848 20.7334 83.8358 26.1913 86.8011C31.8285 89.8634 41.29 86.7161 50.5025 79.1299C51.2495 78.5131 51.9801 77.8789 52.6936 77.2279C53.6154 78.0658 54.5619 78.8792 55.5319 79.6674C64.4561 86.9008 73.2695 89.8217 78.7221 86.8483C84.354 83.7771 86.1845 74.4836 83.808 63.1768C83.6208 62.2909 83.4109 61.4095 83.1785 60.5333C83.8429 60.3478 84.4951 60.157 85.1308 59.9584C97.1681 56.2018 105 50.1282 105 43.9167C105 37.9602 97.6713 32.1999 86.3309 28.5226ZM83.7203 55.948C83.1455 56.1267 82.5576 56.2999 81.9566 56.4676C80.6277 52.5047 78.8345 48.2911 76.6397 43.9372C78.734 39.6872 80.4583 35.5273 81.7499 31.5903C82.8241 31.8831 83.8663 32.1918 84.8712 32.5175C94.5878 35.6687 100.515 40.327 100.515 43.9167C100.515 47.7401 94.1136 52.7037 83.7203 55.948ZM79.4079 63.9974C80.4587 68.9969 80.6084 73.5173 79.9124 77.0513C79.2873 80.2268 78.0298 82.3437 76.4744 83.1917C73.1657 84.996 66.0893 82.6508 58.4575 76.4644C57.5554 75.7316 56.675 74.9753 55.8173 74.1965C58.7762 71.1485 61.733 67.6052 64.6189 63.6698C69.695 63.2455 74.4905 62.5516 78.8394 61.6047C79.0541 62.4191 79.2436 63.2167 79.4079 63.9974ZM35.7968 82.88C32.5639 83.9552 29.989 83.9861 28.4324 83.1407C25.1204 81.3415 23.7435 74.3951 25.6216 65.0776C25.8449 63.9766 26.1005 62.8816 26.3882 61.794C30.6891 62.6903 35.4498 63.3348 40.5378 63.7235C43.4433 67.5743 46.4855 71.1137 49.5514 74.2131C48.8998 74.807 48.2328 75.3857 47.5511 75.9487C43.477 79.303 39.3947 81.683 35.7968 82.88ZM20.6514 55.9244C15.5314 54.2758 11.3031 52.1334 8.40492 49.7956C5.80043 47.6949 4.48588 45.609 4.48588 43.9167C4.48588 40.3151 10.1858 35.7212 19.6928 32.5991C20.8466 32.2204 22.0541 31.863 23.3071 31.5277C24.6213 35.5536 26.3447 39.7629 28.4246 44.0195C26.3177 48.339 24.5696 52.6156 23.2427 56.689C22.3724 56.4541 21.5084 56.1992 20.6514 55.9244ZM25.7283 23.3697C23.755 13.8703 25.0655 6.70444 28.3635 4.90593C31.8761 2.99036 39.6437 5.72154 47.8308 12.5694C48.3647 13.0169 48.8899 13.4735 49.4062 13.939C46.3554 17.0249 43.3412 20.5381 40.4615 24.3661C35.5232 24.7973 30.7962 25.4896 26.4502 26.4173C26.1823 25.4074 25.9416 24.391 25.7283 23.3697ZM71.0206 33.9053C69.9941 32.2351 68.9295 30.5859 67.8275 28.9588C71.1777 29.3579 74.3876 29.8876 77.4018 30.5351C76.497 33.2675 75.3691 36.1238 74.0414 39.0524C73.071 37.318 72.0638 35.6019 71.0206 33.9053ZM52.5504 16.9592C54.6193 19.0707 56.6914 21.4278 58.7295 23.9855C54.5951 23.8016 50.4538 23.8008 46.3194 23.9832C48.3595 21.4491 50.4492 19.095 52.5504 16.9592ZM33.9618 33.9339C32.9316 35.6168 31.9432 37.3222 30.9976 39.0486C29.6916 36.1304 28.5739 33.2609 27.6613 30.4899C30.6571 29.8586 33.8518 29.3424 37.1807 28.9507C36.0665 30.5877 34.9932 32.2495 33.9618 33.9339ZM37.2762 59.1829C33.8371 58.8213 30.5944 58.3318 27.5994 57.7175C28.5264 54.8971 29.6687 51.9665 31.0029 48.9857C31.9523 50.7134 32.9448 52.4198 33.9794 54.1035C35.0433 55.8344 36.145 57.5297 37.2762 59.1829ZM52.6743 71.1717C50.5481 69.0112 48.4276 66.6208 46.3567 64.0499C48.3673 64.1241 50.4168 64.162 52.5 64.162C54.6402 64.162 56.7558 64.1168 58.8381 64.0294C56.7935 66.6467 54.7292 69.0405 52.6743 71.1717ZM74.0837 48.8335C75.4872 51.8471 76.6701 54.7622 77.6094 57.5344C74.5652 58.1888 71.2782 58.7158 67.8148 59.1072C68.9247 57.45 69.9993 55.7721 71.0382 54.0745C72.0946 52.349 73.11 50.6016 74.0837 48.8335ZM67.1528 51.9634C65.5622 54.566 63.8823 57.1193 62.1157 59.6191C58.9155 59.8328 55.7082 59.9388 52.5 59.9371C49.2323 59.9371 46.054 59.8413 42.9934 59.6543C41.1805 57.1603 39.4685 54.6026 37.8611 51.9866C36.261 49.3846 34.767 46.7262 33.3814 44.0172C34.7635 41.3075 36.2534 38.6479 37.848 36.0438L37.8476 36.0442C39.4413 33.4394 41.1397 30.8926 42.9389 28.4094C46.0614 28.1868 49.2635 28.0709 52.4996 28.0709C55.7505 28.0709 58.9571 28.188 62.0788 28.4121C63.8598 30.8916 65.5473 33.4297 67.1381 36.0214C68.7377 38.6199 70.2473 41.2665 71.6646 43.9573C70.2619 46.6755 68.757 49.3459 67.1528 51.9634ZM76.406 4.77959C79.9218 6.68976 81.2893 14.3926 79.0802 24.494C78.9385 25.139 78.7813 25.7945 78.6085 26.4606C74.2518 25.5132 69.5215 24.8089 64.5688 24.3711C61.6838 20.501 58.6942 16.9824 55.6931 13.9363C56.4796 13.2222 57.2849 12.5265 58.1081 11.85C65.86 5.49552 73.105 2.9865 76.406 4.77959ZM52.5 35.0845C57.6782 35.0845 61.8762 39.0389 61.8762 43.9167C61.8762 48.7945 57.6782 52.7489 52.5 52.7489C47.3218 52.7489 43.1238 48.7945 43.1238 43.9167C43.1238 39.0389 47.3218 35.0845 52.5 35.0845Z" fill="#00D8FF"/>
</svg>
