<svg width="24" height="24" viewBox="0 0 24 24" fill="none" xmlns="http://www.w3.org/2000/svg">
<path fill-rule="evenodd" clip-rule="evenodd" d="M12 1.5C14.0767 1.5 16.1068 2.11581 17.8335 3.26957C19.5602 4.42332 20.906 6.0632 21.7007 7.98182C22.4955 9.90045 22.7034 12.0116 22.2982 14.0484C21.8931 16.0852 20.8931 17.9562 19.4246 19.4246C17.9562 20.8931 16.0852 21.8931 14.0484 22.2982C12.0116 22.7034 9.90045 22.4955 7.98182 21.7007C6.0632 20.906 4.42332 19.5602 3.26957 17.8335C2.11581 16.1068 1.5 14.0767 1.5 12C1.5 9.21523 2.60625 6.54451 4.57538 4.57538C6.54451 2.60625 9.21523 1.5 12 1.5Z" fill="#CC6699"/>
<path d="M18.5864 5.994C18.1109 4.1295 15.0186 3.519 12.0921 4.5555C10.2593 5.17127 8.56601 6.14256 7.10915 7.41375C5.4974 8.92125 5.24015 10.2337 5.3459 10.782C5.7209 12.717 8.37065 13.9815 9.4604 14.9197V14.925C9.1394 15.0832 6.7874 16.275 6.2354 17.49C5.6549 18.774 6.32765 19.695 6.7739 19.8187C7.44389 19.98 8.14757 19.9276 8.78621 19.6686C9.42485 19.4097 9.96641 18.9573 10.3349 18.375C10.6397 17.9033 10.8303 17.367 10.8918 16.8088C10.9532 16.2506 10.8838 15.6857 10.6889 15.159C11.2137 15.0249 11.7595 14.9936 12.2961 15.0667C14.1382 15.282 14.4996 16.4317 14.4306 16.9132C14.3982 17.0846 14.3292 17.247 14.2284 17.3894C14.1276 17.5318 13.9973 17.6507 13.8464 17.7382C13.7174 17.8185 13.6777 17.8455 13.6889 17.9055C13.7047 17.9917 13.7639 17.9887 13.8742 17.97C14.151 17.8828 14.3949 17.7138 14.5737 17.4853C14.7526 17.2568 14.858 16.9794 14.8761 16.6897C14.9204 15.5647 13.8396 14.3002 11.9256 14.3325C11.3697 14.3161 10.8149 14.3922 10.2839 14.5575L10.2029 14.4675C9.0194 13.2052 6.8324 12.312 6.92465 10.6147C6.9584 9.9975 7.1729 8.373 11.1247 6.402C14.3647 4.78725 16.9582 5.232 17.4067 6.21675C18.0472 7.62375 16.0206 10.2375 12.6561 10.6147C12.2843 10.6902 11.9002 10.681 11.5324 10.5878C11.1645 10.4946 10.8224 10.3197 10.5314 10.0762C10.3544 9.88125 10.3281 9.873 10.2621 9.909C10.1549 9.96825 10.2231 10.1407 10.2621 10.2427C10.391 10.4749 10.5649 10.679 10.7737 10.8431C10.9824 11.0071 11.2219 11.1279 11.4779 11.1982C12.8008 11.4853 14.1804 11.3488 15.4214 10.8082C17.4621 10.0215 19.0537 7.82775 18.5864 5.994ZM9.9134 15.4972C10.0616 16.0109 10.0541 16.5569 9.89165 17.0662C9.87415 17.1192 9.8549 17.1717 9.8339 17.2237C9.8129 17.2757 9.79015 17.3257 9.76565 17.3737C9.63861 17.6315 9.47519 17.8697 9.2804 18.081C8.67065 18.7462 7.8179 18.9982 7.45265 18.786C7.05815 18.5572 7.2554 17.619 7.96265 16.8712C8.50627 16.3341 9.13278 15.8879 9.81815 15.5497L9.9134 15.4972Z" fill="white"/>
</svg>
