<svg width="106" height="106" viewBox="0 0 106 106" fill="none" xmlns="http://www.w3.org/2000/svg">
<path d="M18.6053 38.573H100.405V99.0342H18.6053V38.573Z" fill="white"/>
<path d="M1.23108 52.4512V93.7451C1.23108 99.268 5.70823 103.745 11.2311 103.745H93.819C99.3418 103.745 103.819 99.268 103.819 93.7451V11.1572C103.819 5.63438 99.3418 1.15723 93.819 1.15723H11.2311C5.70823 1.15723 1.23108 5.63438 1.23108 11.1572V52.4512ZM83.9005 48.3561C83.9005 48.3518 83.9045 48.3486 83.9087 48.3496C86.3626 48.9207 88.5927 50.205 90.3184 52.0408C90.652 52.3882 90.9704 52.7495 91.2727 53.1234C92.3724 54.484 92.065 55.8989 90.6176 56.8815C89.114 57.9022 87.1231 59.2105 85.6486 60.1247C85.5501 60.1904 85.1562 59.7636 84.7212 59.1153C84.2283 58.2648 83.5279 57.553 82.6855 57.0464C81.8431 56.5398 80.886 56.2548 79.9037 56.2182C76.7932 56.0048 74.7907 57.638 74.8071 60.3217C74.7822 60.9898 74.9351 61.6525 75.2503 62.2422C75.9315 63.662 77.2036 64.5073 81.1922 66.2308C88.5375 69.3905 91.6808 71.4751 93.634 74.4378C95.8171 77.7206 96.3013 83.0224 94.8241 86.9453C93.1827 91.213 89.1612 94.1101 83.4737 95.0703C80.8761 95.368 78.2515 95.3404 75.6607 94.9882C71.6898 94.3337 68.0321 92.4272 65.2213 89.547C64.6157 88.8782 63.6418 87.52 63.0519 86.5805C62.6593 85.9551 62.8462 85.3395 63.4978 84.9921L67.2977 82.8911L69.2927 81.7352C69.8284 81.4248 70.5129 81.582 70.8595 82.095C71.8987 83.5807 73.2206 84.8468 74.7497 85.821C78.0325 87.5444 82.5135 87.3064 84.7294 85.3121C85.4734 84.5813 85.9375 83.6128 86.041 82.575C86.1445 81.5373 85.8807 80.4962 85.2957 79.6329C84.475 78.4921 82.8336 77.5319 78.2459 75.5293C72.9523 73.2478 70.6708 71.8362 68.5862 69.5875C67.2853 68.1032 66.3245 66.3526 65.7712 64.4581C65.3588 62.2934 65.2978 60.0765 65.5906 57.8924C66.6822 52.7795 70.5148 49.2094 76.112 48.1507C78.7015 47.8308 81.3244 47.9022 83.8926 48.3627C83.8967 48.3634 83.9005 48.3602 83.9005 48.3561ZM59.8211 52.6481C59.8211 54.9688 57.9398 56.8501 55.6191 56.8501H53.1611C49.4829 56.8501 46.5011 59.8319 46.5011 63.5101V90.0681C46.5011 92.6766 44.3864 94.7912 41.7779 94.7912C39.1694 94.7912 37.0548 92.6766 37.0548 90.0681V63.5184C37.0548 59.8311 34.0656 56.8419 30.3784 56.8419H27.8054C25.5391 56.8419 23.7019 55.0047 23.7019 52.7384C23.6933 52.4475 23.6879 52.1565 23.6856 51.8655C23.6683 49.6774 24.9798 48.4496 27.1679 48.4384C30.4581 48.4215 35.8383 48.4215 41.8559 48.4215H55.5449C57.8873 48.4215 59.7938 50.3059 59.8211 52.6481Z" fill="#007ACC"/>
</svg>
