<svg width="104" height="104" viewBox="0 0 104 104" fill="none" xmlns="http://www.w3.org/2000/svg">
<path fill-rule="evenodd" clip-rule="evenodd" d="M51.9147 76.6211C74.204 107.007 96.018 68.1403 95.9855 44.7671C95.9481 17.1323 67.9396 1.6875 51.8968 1.6875C26.1479 1.6875 1.625 22.9685 1.625 52.0853C1.625 84.4488 29.7342 102.375 51.8968 102.375C46.8821 101.653 30.1689 98.0719 29.9439 59.5773C29.7927 33.5416 38.4369 23.1399 51.8602 27.7159C52.1609 27.8273 66.6664 33.5497 66.6664 52.2429C66.6664 70.8556 51.9147 76.6211 51.9147 76.6211Z" fill="url(#paint0_linear_6_9775)"/>
<path fill-rule="evenodd" clip-rule="evenodd" d="M51.8887 27.695C37.1605 22.6185 19.1181 34.7572 19.1181 59.0713C19.1181 98.7716 48.5379 102.375 52.104 102.375C77.8521 102.375 102.375 81.0941 102.375 51.9773C102.375 19.6138 74.2658 1.68764 52.1032 1.68764C58.2416 0.837764 85.1874 8.33064 85.1874 45.1596C85.1874 69.1763 65.0666 82.2511 51.9805 76.6651C51.6799 76.5538 37.1743 70.8314 37.1743 52.1382C37.1743 33.5238 51.8887 27.6941 51.8887 27.695Z" fill="url(#paint1_linear_6_9775)"/>
<defs>
<linearGradient id="paint0_linear_6_9775" x1="15.642" y1="17.4345" x2="86.61" y2="88.4226" gradientUnits="userSpaceOnUse">
<stop/>
<stop offset="1" stop-color="white"/>
</linearGradient>
<linearGradient id="paint1_linear_6_9775" x1="89.8284" y1="85.1975" x2="18.8603" y2="14.2158" gradientUnits="userSpaceOnUse">
<stop/>
<stop offset="1" stop-color="white"/>
</linearGradient>
</defs>
</svg>
