<svg width="121" height="121" viewBox="0 0 121 121" fill="none" xmlns="http://www.w3.org/2000/svg">
<path d="M7.59058 24C7.59058 15.7157 14.3063 9 22.5906 9H95.5906C103.875 9 110.591 15.7157 110.591 24V97C110.591 105.284 103.875 112 95.5906 112H22.5906C14.3063 112 7.59058 105.284 7.59058 97V24Z" fill="#F5DE19"/>
<path d="M78.0703 89.5731C78.9667 91.39 80.3576 92.9172 82.0832 93.979C83.8087 95.0409 85.7988 95.5944 87.8248 95.5759C91.9142 95.5759 94.5292 93.5312 94.5292 90.6986C94.5292 87.322 91.8429 86.1139 87.3408 84.1443L84.8722 83.0863C77.7438 80.0511 73.0166 76.2506 73.0166 68.2143C73.0166 60.8121 78.6443 55.1732 87.4721 55.1732C90.3298 54.9674 93.1848 55.6072 95.6814 57.0129C98.1779 58.4186 100.205 60.528 101.511 63.0782L93.7938 68.0117C93.2907 66.7474 92.4154 65.6657 91.2838 64.91C90.1522 64.1543 88.8178 63.7601 87.4571 63.7798C86.8635 63.7203 86.2639 63.7852 85.6967 63.9703C85.1295 64.1554 84.6071 64.4566 84.1627 64.8547C83.7183 65.2528 83.3617 65.7392 83.1157 66.2827C82.8697 66.8263 82.7396 67.4151 82.7337 68.0117C82.7337 70.9719 84.5683 72.1724 88.804 74.0145L91.2727 75.0725C99.6616 78.6705 104.404 82.3359 104.404 90.5785C104.404 99.4664 97.4218 104.336 88.0462 104.336C84.3935 104.567 80.752 103.736 77.5603 101.945C74.3686 100.154 71.7628 97.4781 70.0565 94.2402L78.0703 89.5731ZM43.1977 90.4285C44.7472 93.1785 46.1578 95.5046 49.5494 95.5046C52.7909 95.5046 54.8394 94.2365 54.8394 89.3029V55.736H64.7103V89.4342C64.7103 99.654 58.7074 104.306 49.9696 104.306C46.881 104.475 43.8136 103.705 41.1706 102.098C38.5276 100.491 36.4327 98.1219 35.1614 95.302L43.1977 90.4285Z" fill="black"/>
</svg>
