<svg width="105" height="104" viewBox="0 0 105 104" fill="none" xmlns="http://www.w3.org/2000/svg">
<path d="M96.6966 80.4884C90.9674 80.33 86.5931 80.8708 82.8506 82.4617C81.7882 82.9155 80.094 82.9254 79.9206 84.27C80.5048 84.8888 80.5944 85.812 81.0602 86.5735C81.9525 88.0284 83.461 89.9851 84.806 91.0128C86.2759 92.131 87.791 93.3296 89.3669 94.2984C92.1719 96.0254 95.3015 97.0108 97.9973 98.7378C99.5896 99.758 101.168 101.041 102.722 102.192C103.489 102.759 104.006 103.643 105 104V103.838C104.477 103.165 104.342 102.237 103.86 101.535L101.742 99.3964C99.6718 96.6226 97.0434 94.1864 94.2515 92.1642C92.024 90.5475 87.0368 88.3668 86.1091 85.7523L85.9456 85.5872C87.5248 85.4056 89.3735 84.8291 90.8335 84.4334C93.282 83.7723 95.4716 83.944 97.9973 83.2829L101.419 82.2983V81.6405C100.141 80.3184 99.2297 78.5657 97.8371 77.3671C94.1882 74.2308 90.2082 71.1003 86.11 68.4892C83.8373 67.0409 81.029 66.0978 78.6192 64.8701C77.8074 64.4587 76.3852 64.2414 75.8495 63.5546C74.585 61.928 73.8948 59.8642 72.9196 57.9655C70.8754 53.9898 68.8689 49.6517 67.0556 45.4686C65.8199 42.6177 65.0147 39.8049 63.4741 37.2485C56.0795 24.9746 48.1204 17.5649 35.7894 10.2837C33.1643 8.73509 30.006 8.12294 26.6677 7.32249L21.2918 6.99484C20.1974 6.53448 19.0611 5.18326 18.034 4.52548C13.9497 1.91843 3.47068 -3.74858 0.443807 3.70347C-1.46565 8.40496 3.30061 12.9928 5.00466 15.3776C6.20177 17.0465 7.73246 18.9219 8.58613 20.8015C9.15141 22.0391 9.24755 23.2767 9.72902 24.5831C10.9105 27.804 11.9433 31.3094 13.4748 34.2839C14.248 35.7902 15.1016 37.3754 16.081 38.7233C16.6783 39.5494 17.7078 39.9161 17.8722 41.1893C16.864 42.6119 16.8065 44.8183 16.2421 46.6166C13.6967 54.7206 14.6596 64.7905 18.3602 70.7851C19.4965 72.6291 22.1734 76.5749 25.851 75.0619C29.0701 73.7364 28.3512 69.638 29.2722 66.019C29.4809 65.1994 29.3528 64.5964 29.7603 64.0456V64.2107L32.6935 70.1274C34.8634 73.656 38.7111 77.343 41.9754 79.8315C43.6672 81.1213 44.999 83.3501 47.1878 84.1049V83.9399H47.0243C46.6004 83.2721 45.9365 82.9967 45.3975 82.4626C44.1232 81.1993 42.705 79.6307 41.6517 78.1858C38.6832 74.1197 36.0605 69.667 33.6729 65.0344C32.53 62.8213 31.5383 60.3818 30.5753 58.1298C30.2032 57.2613 30.2097 55.9458 29.4358 55.4987C28.3832 57.1477 26.8295 58.4831 26.0145 60.4299C24.7147 63.5438 24.5446 67.3445 24.0631 71.2812C23.7772 71.3849 23.9029 71.3135 23.7361 71.4463C21.4668 70.8922 20.6714 68.5364 19.8268 66.5117C17.6955 61.3988 17.2978 53.1653 19.1753 47.2752C19.66 45.7523 21.8554 40.9571 20.9664 39.5478C20.5425 38.1451 19.1432 37.3314 18.3602 36.2589C17.3907 34.9334 16.4253 33.1873 15.754 31.6544C14.0081 27.6688 13.1963 23.1913 11.3567 19.1608C10.4775 17.2331 8.99448 15.2822 7.77519 13.5718C6.42361 11.6731 4.91264 10.2729 3.86589 7.97944C3.49369 7.16323 2.99003 5.8568 3.53888 5.02151C3.71553 4.45415 3.96284 4.21775 4.51744 4.0336C5.46066 3.29785 8.09316 4.27996 9.075 4.69138C11.6878 5.78629 13.8667 6.82978 16.081 8.3104C17.1401 9.0196 18.2156 10.3941 19.499 10.7764H20.9656C23.2571 11.3081 25.8247 10.9382 27.9683 11.596C31.7552 12.7589 35.1477 14.5672 38.2288 16.5305C47.6134 22.5152 55.2907 31.0298 60.5409 41.1943C61.3847 42.8309 61.7512 44.3894 62.4956 46.1255C63.9942 49.6251 65.8848 53.2251 67.3769 56.65C68.8689 60.0616 70.3199 63.5098 72.4282 66.3507C73.5358 67.8446 77.8107 68.6451 79.7555 69.4746C81.1194 70.0544 83.3534 70.6607 84.6434 71.4479C87.1082 72.9484 89.4959 74.7368 91.8104 76.3792C92.9623 77.202 96.5183 79.007 96.695 80.4909L96.6966 80.4884ZM23.8963 17.8461C22.7025 17.8237 21.8587 17.9755 20.9664 18.1737V18.3388H21.1266C21.6977 19.5183 22.7025 20.2798 23.4083 21.2967L25.0351 24.7507L25.1986 24.5889C26.2068 23.8698 26.6685 22.7226 26.6619 20.9699C26.2577 20.5386 26.2002 20.0044 25.8469 19.4893C25.3851 18.8058 24.483 18.4201 23.8955 17.8469L23.8963 17.8461Z" fill="#00618A"/>
</svg>
