<svg width="24" height="24" viewBox="0 0 24 24" fill="none" xmlns="http://www.w3.org/2000/svg">
<path d="M8.51001 2H15.49C15.722 2 15.9 2 16.056 2.015C17.164 2.124 18.071 2.79 18.456 3.687H5.54401C5.92901 2.79 6.83601 2.124 7.94401 2.015C8.09801 2 8.27601 2 8.51001 2ZM6.31001 4.723C4.92001 4.723 3.78001 5.563 3.40001 6.677L3.37601 6.747C3.77401 6.627 4.18901 6.547 4.60801 6.494C5.68801 6.355 7.05401 6.355 8.64001 6.355H15.532C17.118 6.355 18.483 6.355 19.564 6.494C19.984 6.548 20.398 6.626 20.796 6.747L20.773 6.677C20.393 5.563 19.253 4.723 17.862 4.723H6.31001Z" fill="#EEEEEE"/>
<path fill-rule="evenodd" clip-rule="evenodd" d="M8.67199 7.54199H15.328C18.702 7.54199 20.39 7.54199 21.338 8.52899C22.286 9.51599 22.062 11.04 21.616 14.089L21.194 16.981C20.844 19.372 20.669 20.568 19.772 21.284C18.875 22 17.552 22 14.905 22H9.09499C6.44899 22 5.12499 22 4.22799 21.284C3.33099 20.568 3.15599 19.372 2.80599 16.981L2.38399 14.09C1.93699 11.04 1.71399 9.51599 2.66199 8.52899C3.60999 7.54199 5.29799 7.54199 8.67199 7.54199ZM7.99999 18C7.99999 17.586 8.37299 17.25 8.83299 17.25H15.167C15.627 17.25 16 17.586 16 18C16 18.414 15.627 18.75 15.167 18.75H8.83299C8.37299 18.75 7.99999 18.414 7.99999 18Z" fill="#EEEEEE"/>
</svg>
