<svg width="102" height="103" viewBox="0 0 102 103" fill="none" xmlns="http://www.w3.org/2000/svg">
<g filter="url(#filter0_d_6_269)">
<path d="M65.9266 46.5522C65.9266 49.3557 66.7108 50.4738 68.7616 50.4738C73.3323 50.4738 76.2428 44.5497 76.2428 34.6974C76.2428 19.6386 65.4541 12.4295 51.9845 12.4295C38.1278 12.4295 25.5245 21.8814 25.5245 39.7437C25.5245 56.805 36.5495 66.0966 53.4808 66.0966C59.2295 66.0966 63.0883 65.4558 68.9912 63.4533L70.2578 68.8167C64.4303 70.7424 58.2025 71.2998 53.402 71.2998C31.1945 71.2998 19.3 58.8843 19.3 39.7404C19.3 20.4362 33.0845 7.2998 52.0633 7.2998C71.8295 7.2998 82.3 19.3148 82.3 34.0532C82.3 46.5489 78.4445 56.0808 66.317 56.0808C60.8012 56.0808 57.182 53.838 56.7095 48.8684C55.292 54.3953 51.512 56.0808 46.39 56.0808C39.5387 56.0808 33.79 50.7107 33.79 39.9006C33.79 29.0069 38.8333 22.2785 47.8895 22.2785C52.6933 22.2785 55.6858 24.2009 57.018 27.2447L59.305 22.9994H65.92V46.5522H65.9266ZM56.2436 35.979C56.2436 31.5768 53.0116 29.7312 50.3341 29.7312C47.4203 29.7312 44.1948 32.1308 44.1948 39.183C44.1948 44.79 46.6361 47.9139 50.3341 47.9139C52.9328 47.9139 56.2436 46.2318 56.2436 41.586V35.979Z" fill="#00ADB5"/>
</g>
<defs>
<filter id="filter0_d_6_269" x="-1.14441e-05" y="-0.00019455" width="101.6" height="102.6" filterUnits="userSpaceOnUse" color-interpolation-filters="sRGB">
<feFlood flood-opacity="0" result="BackgroundImageFix"/>
<feColorMatrix in="SourceAlpha" type="matrix" values="0 0 0 0 0 0 0 0 0 0 0 0 0 0 0 0 0 0 127 0" result="hardAlpha"/>
<feOffset dy="12"/>
<feGaussianBlur stdDeviation="9.65"/>
<feComposite in2="hardAlpha" operator="out"/>
<feColorMatrix type="matrix" values="0 0 0 0 0 0 0 0 0 0 0 0 0 0 0 0 0 0 0.19 0"/>
<feBlend mode="normal" in2="BackgroundImageFix" result="effect1_dropShadow_6_269"/>
<feBlend mode="normal" in="SourceGraphic" in2="effect1_dropShadow_6_269" result="shape"/>
</filter>
</defs>
</svg>
