<svg width="15" height="11" viewBox="0 0 15 11" fill="none" xmlns="http://www.w3.org/2000/svg">
<path d="M11.7632 4.61156H11.7658C13.1286 5.11761 14.9987 5.80908 14.9987 7.76633C14.996 8.21955 14.8965 8.66712 14.7066 9.07974C14.5207 9.49311 14.2487 9.86317 13.9082 10.1658C13.5678 10.4684 13.1666 10.6968 12.7308 10.8361C12.2964 10.9785 11.8365 11.0289 11.3811 10.9842C11.2884 10.9943 11.1952 10.9994 11.102 10.9996C10.2949 10.9969 9.51746 10.6987 8.92019 10.1627C8.57917 9.86086 8.3058 9.49203 8.1176 9.0798C7.9294 8.66758 7.83053 8.22106 7.82734 7.7689C7.82734 7.50879 7.92906 7.26671 8.11425 7.08387C8.30083 6.90906 8.54823 6.81162 8.80543 6.81162C9.06264 6.81162 9.31003 6.90906 9.49661 7.08387C9.58828 7.17292 9.661 7.27917 9.7105 7.39637C9.75999 7.51357 9.78526 7.63935 9.78483 7.76633C9.78483 8.99218 11.1424 9.05399 11.415 9.05399C11.6875 9.05399 13.0451 8.99218 13.0451 7.76633C13.0451 7.23452 12.4622 6.93192 11.0707 6.41686H11.0668C9.70267 5.90823 7.82865 5.21676 7.82865 3.25952C7.83299 2.79853 7.93037 2.36073 8.12077 1.9461C8.30758 1.53317 8.58042 1.16375 8.9215 0.861893C9.2609 0.559971 9.66078 0.331847 10.0952 0.19231C10.9554 -0.0641032 11.8732 -0.0641032 12.7334 0.19231C13.3894 0.403716 13.9613 0.813614 14.3681 1.3639C14.7749 1.91419 14.996 2.57695 15 3.25823C15 3.51705 14.8983 3.76042 14.7131 3.94198C14.5264 4.11715 14.2788 4.21484 14.0213 4.21484C13.7637 4.21484 13.5161 4.11715 13.3294 3.94198C13.238 3.85281 13.1655 3.74652 13.1162 3.62932C13.067 3.51213 13.0419 3.3864 13.0425 3.25952C13.0425 2.03366 11.6849 1.97186 11.4124 1.97186C11.1398 1.97186 9.78222 2.03366 9.78222 3.25952C9.78222 3.79132 10.3652 4.09392 11.7567 4.60898L11.7632 4.61156ZM5.2178 1.00611C5.2178 0.748579 5.31952 0.506499 5.50471 0.323651C5.69129 0.148849 5.93868 0.0514006 6.19589 0.0514006C6.45309 0.0514006 6.70049 0.148849 6.88707 0.323651C7.07226 0.505211 7.17398 0.748579 7.17398 1.00611V7.44441C7.17421 8.14494 6.96401 8.82979 6.56995 9.41234C6.1759 9.99488 5.6157 10.4489 4.96024 10.717C4.30478 10.9851 3.5835 11.0553 2.88766 10.9185C2.19183 10.7818 1.5527 10.4444 1.05114 9.94891C0.716754 9.62093 0.451656 9.23066 0.27122 8.80073C0.090783 8.37081 -0.00140064 7.90979 1.60848e-05 7.44441V6.80058C1.60848e-05 6.54305 0.101737 6.30097 0.286922 6.11812C0.473569 5.94294 0.721243 5.84526 0.978758 5.84526C1.23627 5.84526 1.48395 5.94294 1.67059 6.11812C1.85578 6.29968 1.9575 6.54305 1.9575 6.80058V7.44441C1.9575 7.86934 2.13225 8.28396 2.43481 8.5827C3.04122 9.18146 4.13408 9.18146 4.74049 8.5827C5.04305 8.28268 5.2178 7.86805 5.2178 7.44441V1.00611Z" fill="#393E46"/>
</svg>
