<svg width="102" height="102" viewBox="0 0 102 102" fill="none" xmlns="http://www.w3.org/2000/svg">
<g filter="url(#filter0_d_6_261)">
<path d="M50.8 7.2998C68.1975 7.2998 82.3 21.4023 82.3 38.7998C82.3 56.1972 68.1975 70.2998 50.8 70.2998C45.2332 70.3093 39.7643 68.8361 34.9555 66.0315L19.3126 70.2998L23.5714 54.6506C20.7647 49.8403 19.2903 44.369 19.3 38.7998C19.3 21.4023 33.4026 7.2998 50.8 7.2998ZM40.0648 23.9948L39.4348 24.02C39.0275 24.0481 38.6295 24.155 38.263 24.335C37.9215 24.5288 37.6096 24.7706 37.3369 25.0532C36.9589 25.4091 36.7447 25.7178 36.5148 26.0171C35.3497 27.5319 34.7223 29.3917 34.7319 31.3028C34.7382 32.8463 35.1414 34.3488 35.7714 35.7537C37.0597 38.595 39.1797 41.6033 41.9769 44.391C42.651 45.062 43.3125 45.7361 44.0244 46.3629C47.5002 49.4228 51.6419 51.6296 56.1204 52.8078L57.9096 53.0819C58.4923 53.1134 59.0751 53.0693 59.661 53.0409C60.5782 52.9925 61.4738 52.7442 62.2849 52.3133C62.6971 52.1002 63.0996 51.8689 63.4914 51.6203C63.4914 51.6203 63.6247 51.53 63.8851 51.3368C64.3104 51.0218 64.5718 50.7981 64.9246 50.4296C65.1892 50.1566 65.4097 49.8395 65.5861 49.4783C65.8318 48.9648 66.0775 47.9852 66.1783 47.1693C66.2539 46.5456 66.2318 46.2054 66.2224 45.9944C66.2098 45.6573 65.9295 45.3077 65.6239 45.1596L63.7906 44.3375C63.7906 44.3375 61.0501 43.1436 59.3743 42.3813C59.1989 42.305 59.011 42.2612 58.8199 42.2522C58.6044 42.2296 58.3865 42.2537 58.181 42.3227C57.9756 42.3917 57.7874 42.5041 57.6292 42.6522C57.6135 42.6459 57.4024 42.8255 55.125 45.5849C54.9942 45.7605 54.8142 45.8933 54.6077 45.9662C54.4013 46.0391 54.1778 46.0489 53.9658 45.9944C53.7605 45.9397 53.5594 45.8702 53.3641 45.7865C52.9735 45.6227 52.8381 45.5597 52.5703 45.4463C50.7618 44.6585 49.0878 43.5924 47.6091 42.2868C47.2122 41.9403 46.8436 41.5623 46.4656 41.1969C45.2264 40.01 44.1464 38.6674 43.2526 37.2027L43.0668 36.9035C42.9353 36.7012 42.8275 36.4846 42.7455 36.2577C42.6258 35.7947 42.9376 35.423 42.9376 35.423C42.9376 35.423 43.7031 34.5851 44.059 34.1315C44.4055 33.6905 44.6985 33.2621 44.8875 32.9565C45.2592 32.358 45.3757 31.7438 45.1804 31.2681C44.2984 29.1135 43.387 26.9705 42.4462 24.839C42.2604 24.4169 41.7091 24.1145 41.2083 24.0546C41.0382 24.0336 40.8681 24.0168 40.698 24.0042C40.275 23.98 39.8509 23.9842 39.4285 24.0168L40.0648 23.9948Z" fill="#00ADB5"/>
</g>
<defs>
<filter id="filter0_d_6_261" x="-1.14441e-05" y="-0.00019455" width="101.6" height="101.6" filterUnits="userSpaceOnUse" color-interpolation-filters="sRGB">
<feFlood flood-opacity="0" result="BackgroundImageFix"/>
<feColorMatrix in="SourceAlpha" type="matrix" values="0 0 0 0 0 0 0 0 0 0 0 0 0 0 0 0 0 0 127 0" result="hardAlpha"/>
<feOffset dy="12"/>
<feGaussianBlur stdDeviation="9.65"/>
<feComposite in2="hardAlpha" operator="out"/>
<feColorMatrix type="matrix" values="0 0 0 0 0 0 0 0 0 0 0 0 0 0 0 0 0 0 0.19 0"/>
<feBlend mode="normal" in2="BackgroundImageFix" result="effect1_dropShadow_6_261"/>
<feBlend mode="normal" in="SourceGraphic" in2="effect1_dropShadow_6_261" result="shape"/>
</filter>
</defs>
</svg>
