<svg width="21" height="21" viewBox="0 0 21 21" fill="none" xmlns="http://www.w3.org/2000/svg">
<path d="M9.76113 0C9.46055 0 9.15996 0.0316406 8.8752 0.0632813L8.90684 0.300586C9.1916 0.268945 9.47637 0.237305 9.77695 0.237305L9.76113 0ZM10.6471 0L10.6312 0.237305C10.916 0.253125 11.2008 0.284766 11.4855 0.316406L11.533 0.0791016C11.2324 0.0474609 10.9477 0.0158203 10.6471 0ZM17.877 0.126563C16.6271 0.126563 15.5988 1.12324 15.5988 2.38887C15.5988 3.65449 16.6113 4.65117 17.877 4.65117C19.1426 4.65117 20.1393 3.63867 20.1393 2.38887C20.1393 1.13906 19.1268 0.126563 17.877 0.126563ZM8.00508 0.221484C7.72031 0.284766 7.43555 0.363867 7.15078 0.442969L7.21406 0.664453C7.48301 0.585352 7.76777 0.50625 8.05254 0.442969L8.00508 0.221484ZM12.3715 0.268945L12.324 0.49043C12.6088 0.553711 12.8936 0.616992 13.1625 0.711914L13.2258 0.50625C12.941 0.411328 12.6562 0.332227 12.3715 0.268945ZM6.3123 0.743555C6.04336 0.854297 5.77441 0.980859 5.50547 1.10742L5.61621 1.31309C5.86934 1.18652 6.13828 1.05996 6.40723 0.949219L6.3123 0.743555ZM14.0643 0.791016L13.9852 1.0125C14.2383 1.12324 14.5072 1.2498 14.7604 1.37637L14.8553 1.1707C14.6021 1.02832 14.3332 0.901758 14.0643 0.791016ZM4.74609 1.53457C4.49297 1.69277 4.25566 1.8668 4.01836 2.04082L4.16074 2.23066C4.38223 2.05664 4.61953 1.89844 4.87266 1.72441L4.74609 1.53457ZM10.125 2.38887C5.85352 2.38887 2.37305 5.85352 2.37305 10.1408C2.37305 14.4281 5.8377 17.8928 10.125 17.8928C14.4123 17.8928 17.877 14.4281 17.877 10.1408C17.877 5.85352 14.3965 2.38887 10.125 2.38887ZM3.33809 2.61035C3.1166 2.8002 2.91094 3.00586 2.70527 3.22734L2.8793 3.38555C3.06914 3.17988 3.2748 2.97422 3.49629 2.78438L3.33809 2.61035ZM2.13574 3.90762C1.96172 4.1291 1.7877 4.36641 1.62949 4.61953L1.81934 4.74609C1.97754 4.50879 2.13574 4.27148 2.32559 4.05L2.13574 3.90762ZM13.3365 4.65117C14.5863 4.65117 15.5988 5.66367 15.5988 6.91348C15.5988 8.16328 14.5863 9.17578 13.3365 9.17578C12.0867 9.17578 11.0742 8.16328 11.0742 6.91348C11.0742 5.66367 12.0867 4.65117 13.3365 4.65117ZM1.1707 5.39473C1.02832 5.64785 0.901758 5.9168 0.791016 6.18574L1.0125 6.26484C1.12324 6.01172 1.2498 5.74277 1.37637 5.50547L1.1707 5.39473ZM19.1426 5.52129L18.9369 5.63203C19.0793 5.88516 19.19 6.1541 19.3008 6.42305L19.5064 6.32813C19.3957 6.05918 19.2691 5.79024 19.1426 5.52129ZM0.49043 7.0084C0.395508 7.29316 0.316406 7.57793 0.253125 7.8627L0.474609 7.91016C0.537891 7.62539 0.616992 7.35645 0.711914 7.0875L0.49043 7.0084ZM19.807 7.1666L19.5855 7.22988C19.6805 7.49883 19.7437 7.78359 19.807 8.06836L20.0285 8.0209C19.9652 7.73613 19.8861 7.45137 19.807 7.1666ZM0.0791016 8.71699C0.0474609 9.01758 0.0158203 9.30234 0 9.60293L0.237305 9.61875C0.253125 9.33399 0.284766 9.04922 0.316406 8.76445L0.0791016 8.71699ZM20.1867 8.89102L19.9494 8.92266C19.9811 9.20742 19.9969 9.49219 20.0127 9.77695H20.25C20.25 9.47637 20.2184 9.17578 20.1867 8.89102ZM4.85684 8.92266H5.50547V13.4314H8.0209V14.001H4.85684V8.92266ZM13.9852 10.2357C14.8869 10.2357 15.3615 10.5838 15.3615 11.2324V13.384C15.3615 13.558 15.4723 13.6688 15.6779 13.6688C15.7096 13.6688 15.7412 13.6688 15.8045 13.6529L15.7887 14.0959C15.5988 14.1434 15.5039 14.1592 15.3932 14.1592C15.0135 14.1592 14.8395 13.9852 14.792 13.6213C14.3807 14.001 14.0168 14.1592 13.558 14.1592C12.8145 14.1592 12.3557 13.7479 12.3557 13.0834C12.3557 12.6088 12.5771 12.2766 13.0043 12.1025C13.2258 12.0076 13.3523 11.9918 14.175 11.8811C14.6338 11.8178 14.7762 11.7229 14.7762 11.4697V11.3115C14.7762 10.9635 14.4756 10.7736 13.9535 10.7736C13.4156 10.7736 13.1467 10.9793 13.0992 11.4223H12.5139C12.5297 11.0584 12.593 10.8527 12.767 10.6629C13.0043 10.3939 13.4473 10.2357 13.9852 10.2357ZM8.63789 10.3465H9.22324V12.9252C9.22324 13.3682 9.52383 13.6371 9.98262 13.6371C10.5838 13.6371 10.9793 13.1467 10.9793 12.4031V10.3465H11.5488V14.001H11.0268V13.4947C10.6787 13.9693 10.3465 14.1592 9.80859 14.1592C9.09668 14.1592 8.63789 13.7637 8.63789 13.1625V10.3465ZM0.237305 10.473L0 10.4889C0.0158203 10.7895 0.0316406 11.0742 0.0791016 11.3748L0.300586 11.3273C0.268945 11.0426 0.253125 10.7578 0.237305 10.473ZM19.9969 10.6471C19.9811 10.9318 19.9494 11.2166 19.9178 11.5014L20.1551 11.533C20.2025 11.2482 20.2342 10.9477 20.2342 10.6629L19.9969 10.6471ZM0.442969 12.1975L0.221484 12.2449C0.284766 12.5297 0.363867 12.8145 0.442969 13.0992L0.664453 13.0359C0.569531 12.7512 0.50625 12.4822 0.442969 12.1975ZM14.7762 12.1975C14.5863 12.2924 14.4598 12.3082 13.8428 12.4031C13.2258 12.4822 12.9568 12.6879 12.9568 13.0676C12.9568 13.4314 13.2258 13.6529 13.6687 13.6529C14.0168 13.6529 14.3016 13.5422 14.5389 13.3207C14.7129 13.1625 14.7762 13.0359 14.7762 12.8461V12.1975ZM19.7754 12.3398C19.6963 12.6246 19.633 12.9094 19.5381 13.1783L19.7596 13.2574C19.8545 12.9727 19.9336 12.6879 19.9969 12.3873L19.7754 12.3398ZM0.949219 13.8428L0.743555 13.9219C0.854297 14.1908 0.980859 14.4598 1.10742 14.7287L1.31309 14.6338C1.1707 14.3648 1.05996 14.1117 0.949219 13.8428ZM19.2533 14.001C19.1268 14.2541 19.016 14.523 18.8736 14.7762L19.0793 14.8869L19.459 14.0801L19.2533 14.001ZM1.72441 15.3773L1.53457 15.5039C1.69277 15.757 1.8668 15.9943 2.04082 16.2316L2.21484 16.0893C2.04082 15.852 1.88262 15.6146 1.72441 15.3773ZM18.4307 15.5197C18.2725 15.757 18.0984 15.9943 17.9244 16.2158L18.1143 16.3582C18.2883 16.1367 18.4623 15.8836 18.6205 15.6463L18.4307 15.5197ZM2.78437 16.7537L2.61035 16.9119C2.8002 17.1334 3.00586 17.3391 3.22734 17.5447L3.38555 17.3707C3.17988 17.1809 2.97422 16.9594 2.78437 16.7537ZM17.3707 16.8803C17.1809 17.0859 16.9594 17.2916 16.7537 17.4814L16.9119 17.6555C17.1176 17.4498 17.3391 17.2441 17.5447 17.0385L17.3707 16.8803ZM4.05 17.9244L3.90762 18.1143C4.1291 18.2883 4.36641 18.4623 4.61953 18.6205L4.74609 18.4307C4.50879 18.2725 4.27148 18.0984 4.05 17.9244ZM16.0893 18.0352C15.852 18.2092 15.6146 18.3674 15.3773 18.5256L15.5039 18.7154C15.7412 18.5572 15.9943 18.399 16.2316 18.225L16.0893 18.0352ZM5.48965 18.8736L5.37891 19.0793C5.63203 19.2217 5.90098 19.3482 6.16992 19.459L6.26484 19.2533C6.01172 19.1268 5.74277 19.016 5.48965 18.8736ZM14.618 18.9369C14.349 19.0793 14.0959 19.19 13.827 19.3008L13.9219 19.5223C14.1908 19.4115 14.4598 19.285 14.7287 19.1426L14.618 18.9369ZM7.07168 19.5381L6.99258 19.7596C7.27734 19.8545 7.56211 19.9336 7.84687 19.9969L7.91016 19.7754C7.62539 19.6963 7.34063 19.633 7.07168 19.5381ZM13.0201 19.5855C12.7354 19.6805 12.4664 19.7438 12.1816 19.807L12.2291 20.0285C12.5297 19.9811 12.8145 19.902 13.0834 19.807L13.0201 19.5855ZM8.74863 19.9336L8.71699 20.1709C9.01758 20.2025 9.30234 20.2342 9.60293 20.25V20.0127C9.31816 19.9969 9.0334 19.9652 8.74863 19.9336ZM11.3273 19.9494C11.0426 19.9811 10.7578 19.9969 10.473 20.0127L10.4889 20.25C10.7736 20.2342 11.0742 20.2184 11.359 20.1867L11.3273 19.9494Z" fill="#EEEEEE"/>
</svg>
