<svg width="102" height="102" viewBox="0 0 102 102" fill="none" xmlns="http://www.w3.org/2000/svg">
<g filter="url(#filter0_d_6_254)">
<path d="M75.3 7.2998C77.1565 7.2998 78.937 8.0373 80.2497 9.35006C81.5625 10.6628 82.3 12.4433 82.3 14.2998V63.2998C82.3 65.1563 81.5625 66.9368 80.2497 68.2495C78.937 69.5623 77.1565 70.2998 75.3 70.2998H26.3C24.4435 70.2998 22.663 69.5623 21.3502 68.2495C20.0375 66.9368 19.3 65.1563 19.3 63.2998V14.2998C19.3 12.4433 20.0375 10.6628 21.3502 9.35006C22.663 8.0373 24.4435 7.2998 26.3 7.2998H75.3ZM73.55 61.5498V42.9998C73.55 39.9737 72.3479 37.0715 70.2081 34.9317C68.0683 32.7919 65.1661 31.5898 62.14 31.5898C59.165 31.5898 55.7 33.4098 54.02 36.1398V32.2548H44.255V61.5498H54.02V44.2948C54.02 41.5998 56.19 39.3948 58.885 39.3948C60.1846 39.3948 61.4309 39.9111 62.3498 40.83C63.2687 41.7489 63.785 42.9952 63.785 44.2948V61.5498H73.55ZM32.88 26.7598C34.4395 26.7598 35.9351 26.1403 37.0378 25.0376C38.1405 23.9349 38.76 22.4393 38.76 20.8798C38.76 17.6248 36.135 14.9648 32.88 14.9648C31.3112 14.9648 29.8067 15.588 28.6975 16.6973C27.5882 17.8065 26.965 19.311 26.965 20.8798C26.965 24.1348 29.625 26.7598 32.88 26.7598ZM37.745 61.5498V32.2548H28.05V61.5498H37.745Z" fill="#00ADB5"/>
</g>
<defs>
<filter id="filter0_d_6_254" x="-1.14441e-05" y="-0.00019455" width="101.6" height="101.6" filterUnits="userSpaceOnUse" color-interpolation-filters="sRGB">
<feFlood flood-opacity="0" result="BackgroundImageFix"/>
<feColorMatrix in="SourceAlpha" type="matrix" values="0 0 0 0 0 0 0 0 0 0 0 0 0 0 0 0 0 0 127 0" result="hardAlpha"/>
<feOffset dy="12"/>
<feGaussianBlur stdDeviation="9.65"/>
<feComposite in2="hardAlpha" operator="out"/>
<feColorMatrix type="matrix" values="0 0 0 0 0 0 0 0 0 0 0 0 0 0 0 0 0 0 0.19 0"/>
<feBlend mode="normal" in2="BackgroundImageFix" result="effect1_dropShadow_6_254"/>
<feBlend mode="normal" in="SourceGraphic" in2="effect1_dropShadow_6_254" result="shape"/>
</filter>
</defs>
</svg>
