<svg width="32" height="32" viewBox="0 0 32 32" fill="none" xmlns="http://www.w3.org/2000/svg">
<path d="M15.0573 27.152C15.3074 27.4019 15.6465 27.5424 16 27.5424C16.3536 27.5424 16.6926 27.4019 16.9427 27.152L24.4853 19.6093C24.6127 19.4863 24.7143 19.3392 24.7841 19.1765C24.854 19.0138 24.8908 18.8389 24.8923 18.6618C24.8939 18.4848 24.8601 18.3092 24.7931 18.1454C24.7261 17.9815 24.6271 17.8326 24.5019 17.7074C24.3767 17.5823 24.2278 17.4833 24.0639 17.4162C23.9001 17.3492 23.7245 17.3154 23.5475 17.317C23.3704 17.3185 23.1955 17.3553 23.0328 17.4252C22.8701 17.4951 22.723 17.5966 22.6 17.724L17.3333 22.9906V5.33331C17.3333 4.97969 17.1929 4.64055 16.9428 4.3905C16.6928 4.14045 16.3536 3.99998 16 3.99998C15.6464 3.99998 15.3073 4.14045 15.0572 4.3905C14.8072 4.64055 14.6667 4.97969 14.6667 5.33331V22.9906L9.40001 17.724C9.14854 17.4811 8.81174 17.3467 8.46214 17.3497C8.11255 17.3528 7.77813 17.493 7.53092 17.7402C7.28371 17.9874 7.14348 18.3218 7.14044 18.6714C7.13741 19.021 7.2718 19.3578 7.51468 19.6093L15.0573 27.152Z" fill="#EEEEEE"/>
</svg>
