<svg width="63" height="64" viewBox="0 0 63 64" fill="none" xmlns="http://www.w3.org/2000/svg">
<path d="M46.6266 39.2524C46.6266 42.0559 47.4108 43.174 49.4616 43.174C54.0323 43.174 56.9428 37.2499 56.9428 27.3976C56.9428 12.3388 46.1541 5.12975 32.6845 5.12975C18.8278 5.12975 6.22453 14.5816 6.22453 32.4439C6.22453 49.5052 17.2495 58.7968 34.1808 58.7968C39.9295 58.7968 43.7883 58.156 49.6913 56.1535L50.9578 61.5169C45.1303 63.4426 38.9025 64 34.102 64C11.8945 64 0 51.5845 0 32.4405C0 13.1364 13.7845 0 32.7633 0C52.5295 0 63 12.015 63 26.7534C63 39.2491 59.1445 48.781 47.017 48.781C41.5013 48.781 37.882 46.5382 37.4095 41.5686C35.992 47.0955 32.212 48.781 27.09 48.781C20.2388 48.781 14.49 43.4109 14.49 32.6007C14.49 21.7071 19.5333 14.9787 28.5895 14.9787C33.3933 14.9787 36.3858 16.9011 37.718 19.9449L40.005 15.6996H46.62V39.2524H46.6266ZM36.9436 28.6792C36.9436 24.277 33.7116 22.4314 31.0341 22.4314C28.1203 22.4314 24.8948 24.831 24.8948 31.8832C24.8948 37.4902 27.3361 40.6141 31.0341 40.6141C33.6328 40.6141 36.9436 38.932 36.9436 34.2862V28.6792Z" fill="#00ADB5"/>
</svg>
