<svg width="15" height="11" viewBox="0 0 15 11" fill="none" xmlns="http://www.w3.org/2000/svg">
<path d="M9.89311 3.23968C9.89311 3.77285 10.4637 4.07622 11.8256 4.5926C13.1684 5.10124 14.9987 5.79448 14.9987 7.75802V7.7606C14.9958 8.21411 14.8984 8.66191 14.7128 9.07479C14.5309 9.48922 14.2646 9.86022 13.9314 10.1636C13.5983 10.467 13.2056 10.696 12.7791 10.8356C12.3578 10.9776 11.9022 11.0293 11.458 10.9841C11.3673 10.9942 11.2761 10.9994 11.1848 10.9996C10.3949 10.9969 9.63398 10.6979 9.0494 10.1605C8.71563 9.85791 8.44806 9.48813 8.26386 9.07485C8.07966 8.66157 7.9829 8.21391 7.97977 7.7606C7.97977 7.49983 8.07933 7.25713 8.26058 7.07381C8.44326 6.89818 8.68567 6.80025 8.93772 6.80025C9.18976 6.80025 9.43217 6.89818 9.61485 7.07381C9.7961 7.25583 9.89566 7.49983 9.89566 7.75802C9.89566 8.987 11.2244 9.04897 11.4912 9.04897C11.7579 9.04897 13.0867 8.987 13.0867 7.75802C13.0867 7.22485 12.5161 6.92148 11.1542 6.4051C9.81141 5.89646 7.98105 5.20451 7.98105 3.23968C7.98531 2.77752 8.08061 2.3386 8.26697 1.92291C8.45077 1.50981 8.71498 1.14189 9.05068 0.838514C9.38289 0.534275 9.77475 0.304225 10.2007 0.163346C10.6266 0.0238247 11.076 -0.0271135 11.5218 0.013596C11.9475 -0.0259318 12.3766 0.025078 12.7816 0.163346C13.4215 0.378677 13.9792 0.790492 14.3768 1.34144C14.7744 1.89239 14.9923 2.55504 15 3.2371C15 3.49787 14.9004 3.74057 14.7192 3.92389C14.5365 4.09951 14.2941 4.19745 14.0421 4.19745C13.79 4.19745 13.5476 4.09951 13.3649 3.92389C13.2754 3.8345 13.2045 3.72793 13.1563 3.61044C13.1081 3.49294 13.0835 3.3669 13.0841 3.23968C13.0841 2.0107 11.7554 1.94873 11.4886 1.94873C11.2218 1.94873 9.89311 2.0107 9.89311 3.23968ZM0.958274 0.0123051H6.70209C6.89158 0.0118549 7.07693 0.0683655 7.2346 0.174662C7.39227 0.280959 7.51515 0.432246 7.58764 0.609315C7.66013 0.786384 7.67896 0.981246 7.64174 1.16916C7.60452 1.35707 7.51293 1.52956 7.37859 1.66472C7.2902 1.75523 7.18484 1.82698 7.06867 1.87575C6.9525 1.92452 6.82787 1.94933 6.70209 1.94873H4.78749V10.0172C4.78793 10.2088 4.73206 10.3963 4.62696 10.5558C4.52186 10.7152 4.37228 10.8395 4.1972 10.9128C4.02213 10.9861 3.82946 11.0052 3.64367 10.9675C3.45787 10.9299 3.28733 10.8373 3.15369 10.7014C3.0642 10.612 2.99326 10.5054 2.94504 10.3879C2.89682 10.2704 2.87229 10.1444 2.87288 10.0172V1.94873H0.958274C0.768786 1.94918 0.58344 1.89267 0.42577 1.78638C0.2681 1.68008 0.145218 1.52879 0.0727265 1.35172C0.000235195 1.17465 -0.0185952 0.979791 0.0186263 0.791878C0.0558477 0.603964 0.147442 0.431476 0.281779 0.296314C0.370163 0.205803 0.47553 0.134058 0.591699 0.0852876C0.707867 0.0365172 0.832496 0.0117045 0.958274 0.0123051Z" fill="#EEEEEE"/>
</svg>
