<svg width="13" height="13" viewBox="0 0 13 13" fill="none" xmlns="http://www.w3.org/2000/svg">
<path d="M8.255 1.08331H6.14575C5.19025 1.08331 4.433 1.08331 3.84096 1.16348C3.23104 1.24581 2.73758 1.41915 2.34867 1.80969C1.95921 2.20023 1.78642 2.69585 1.70463 3.30794C1.625 3.90269 1.625 4.66265 1.625 5.62194V8.78419C1.625 9.60102 2.12333 10.3009 2.83129 10.5944C2.795 10.1015 2.795 9.4109 2.795 8.83565V6.1219C2.795 5.42802 2.795 4.82948 2.85892 4.35065C2.92771 3.83715 3.08263 3.34531 3.48021 2.9461C3.87779 2.5469 4.368 2.39144 4.87933 2.3221C5.356 2.25819 5.95183 2.25819 6.64354 2.25819H8.30646C8.99763 2.25819 9.59238 2.25819 10.0696 2.3221C9.92664 1.95718 9.67705 1.6438 9.35337 1.42282C9.02968 1.20184 8.64692 1.08353 8.255 1.08331Z" fill="#EEEEEE"/>
<path d="M3.57495 6.17335C3.57495 4.69677 3.57495 3.95848 4.03212 3.49969C4.48874 3.04089 5.22378 3.04089 6.69495 3.04089H8.25495C9.72558 3.04089 10.4612 3.04089 10.9183 3.49969C11.3755 3.95848 11.375 4.69677 11.375 6.17335V8.78418C11.375 10.2608 11.375 10.9991 10.9183 11.4579C10.4612 11.9166 9.72558 11.9166 8.25495 11.9166H6.69495C5.22433 11.9166 4.48874 11.9166 4.03212 11.4579C3.57495 10.9991 3.57495 10.2608 3.57495 8.78418V6.17335Z" fill="#EEEEEE"/>
</svg>
