<svg width="17" height="20" viewBox="0 0 17 20" fill="none" xmlns="http://www.w3.org/2000/svg">
<path d="M16.8068 4.89352L16.8537 4.86225C16.7599 4.69028 16.6192 4.53393 16.4785 4.45576L8.92716 0.10944C8.80208 0.0312685 8.63011 0 8.4425 0C8.25489 0 8.08291 0.0469028 7.95784 0.10944L0.453393 4.4714C0.187611 4.62774 0 5.0186 0 5.31565V14.0239C0 14.1959 0.0312685 14.3835 0.140708 14.5555L0.10944 14.5711C0.187611 14.6962 0.297051 14.8056 0.406491 14.8682L7.9422 19.2301C8.06728 19.3083 8.23925 19.3396 8.42686 19.3396C8.61448 19.3396 8.78645 19.2927 8.91153 19.2301L16.416 14.8682C16.6817 14.7118 16.8694 14.321 16.8694 14.0239V5.30001C16.885 5.17494 16.8694 5.03423 16.8068 4.89352ZM8.4425 15.8375C5.03423 15.8375 2.26697 13.0702 2.26697 9.66197C2.26697 6.2537 5.03423 3.48644 8.4425 3.48644C10.7407 3.48644 12.7419 4.75281 13.805 6.61329L11.7726 7.78586C11.116 6.61329 9.86522 5.83158 8.4425 5.83158C6.33187 5.83158 4.61211 7.55134 4.61211 9.66197C4.61211 11.7726 6.33187 13.4924 8.4425 13.4924C9.86522 13.4924 11.116 12.7106 11.7726 11.5537L13.7894 12.7419C12.7263 14.5868 10.7251 15.8375 8.4425 15.8375ZM16.416 9.34928H15.9157L15.775 9.97465H16.416V10.7564H15.6343L15.4466 11.6944H14.6806L14.8682 10.7564H14.2741L14.0865 11.6944H13.336L13.5236 10.7564H13.1328V9.97465H13.68L13.8207 9.34928H13.1328V8.56757H13.9614L14.149 7.62952H14.9151L14.7275 8.56757H15.3216L15.5092 7.62952H16.2596L16.072 8.56757H16.416V9.34928ZM14.4304 9.97465H15.0245L15.1652 9.34928H14.5711L14.4304 9.97465Z" fill="#EEEEEE"/>
</svg>
