<svg width="20" height="20" viewBox="0 0 20 20" fill="none" xmlns="http://www.w3.org/2000/svg">
<path fill-rule="evenodd" clip-rule="evenodd" d="M11.1111 9.05556V1.11111C11.1111 0.816426 10.994 0.533811 10.7857 0.325437C10.5773 0.117063 10.2947 0 9.99998 0C9.70529 0 9.42268 0.117063 9.21431 0.325437C9.00593 0.533811 8.88887 0.816426 8.88887 1.11111V9.05556L6.4222 5.97111C6.33281 5.85211 6.22042 5.75229 6.0917 5.67757C5.96299 5.60284 5.82057 5.55474 5.67291 5.53611C5.52525 5.51748 5.37535 5.52871 5.2321 5.56912C5.08886 5.60954 4.9552 5.67833 4.83906 5.77139C4.72291 5.86446 4.62664 5.97991 4.55597 6.1109C4.4853 6.24188 4.44167 6.38573 4.42766 6.5339C4.41365 6.68207 4.42956 6.83155 4.47443 6.97346C4.5193 7.11537 4.59222 7.24682 4.68887 7.36L9.13331 12.9156C9.23743 13.0453 9.36935 13.1501 9.51935 13.222C9.66936 13.294 9.83361 13.3314 9.99998 13.3314C10.1664 13.3314 10.3306 13.294 10.4806 13.222C10.6306 13.1501 10.7625 13.0453 10.8666 12.9156L15.3111 7.36C15.4077 7.24682 15.4807 7.11537 15.5255 6.97346C15.5704 6.83155 15.5863 6.68207 15.5723 6.5339C15.5583 6.38573 15.5147 6.24188 15.444 6.1109C15.3733 5.97991 15.277 5.86446 15.1609 5.77139C15.0448 5.67833 14.9111 5.60954 14.7679 5.56912C14.6246 5.52871 14.4747 5.51748 14.3271 5.53611C14.1794 5.55474 14.037 5.60284 13.9083 5.67757C13.7795 5.75229 13.6672 5.85211 13.5778 5.97111L11.1111 9.05556Z" fill="#EEEEEE"/>
<path fill-rule="evenodd" clip-rule="evenodd" d="M7.39667 14.3044L4.84222 11.1111H2.22222C1.63285 11.1111 1.06762 11.3452 0.650874 11.762C0.234126 12.1787 0 12.7439 0 13.3333V17.7778C0 18.3671 0.234126 18.9324 0.650874 19.3491C1.06762 19.7658 1.63285 20 2.22222 20H17.7778C18.3671 20 18.9324 19.7658 19.3491 19.3491C19.7659 18.9324 20 18.3671 20 17.7778V13.3333C20 12.7439 19.7659 12.1787 19.3491 11.762C18.9324 11.3452 18.3671 11.1111 17.7778 11.1111H15.1578L12.6022 14.3044C12.2899 14.6947 11.8939 15.0098 11.4433 15.2263C10.9928 15.4429 10.4993 15.5553 9.99944 15.5553C9.49958 15.5553 9.00611 15.4429 8.55557 15.2263C8.10503 15.0098 7.70895 14.6947 7.39667 14.3044ZM15.5556 14.4444C15.2609 14.4444 14.9783 14.5615 14.7699 14.7699C14.5615 14.9782 14.4444 15.2608 14.4444 15.5555C14.4444 15.8502 14.5615 16.1328 14.7699 16.3412C14.9783 16.5496 15.2609 16.6666 15.5556 16.6666H15.5667C15.8614 16.6666 16.144 16.5496 16.3523 16.3412C16.5607 16.1328 16.6778 15.8502 16.6778 15.5555C16.6778 15.2608 16.5607 14.9782 16.3523 14.7699C16.144 14.5615 15.8614 14.4444 15.5667 14.4444H15.5556Z" fill="#EEEEEE"/>
</svg>
