<svg width="40" height="40" viewBox="0 0 40 40" fill="none" xmlns="http://www.w3.org/2000/svg">
<path fill-rule="evenodd" clip-rule="evenodd" d="M2.928 37.072C5.86 40 10.572 40 20 40C29.428 40 34.142 40 37.07 37.07C40 34.144 40 29.428 40 20C40 10.572 40 5.858 37.07 2.928C34.144 0 29.428 0 20 0C10.572 0 5.858 0 2.928 2.928C0 5.86 0 10.572 0 20C0 29.428 0 34.144 2.928 37.072ZM33.5 28C33.5 28.3978 33.342 28.7794 33.0607 29.0607C32.7794 29.342 32.3978 29.5 32 29.5H8C7.60218 29.5 7.22064 29.342 6.93934 29.0607C6.65804 28.7794 6.5 28.3978 6.5 28C6.5 27.6022 6.65804 27.2206 6.93934 26.9393C7.22064 26.658 7.60218 26.5 8 26.5H32C32.3978 26.5 32.7794 26.658 33.0607 26.9393C33.342 27.2206 33.5 27.6022 33.5 28ZM32 21.5C32.3978 21.5 32.7794 21.342 33.0607 21.0607C33.342 20.7794 33.5 20.3978 33.5 20C33.5 19.6022 33.342 19.2206 33.0607 18.9393C32.7794 18.658 32.3978 18.5 32 18.5H8C7.60218 18.5 7.22064 18.658 6.93934 18.9393C6.65804 19.2206 6.5 19.6022 6.5 20C6.5 20.3978 6.65804 20.7794 6.93934 21.0607C7.22064 21.342 7.60218 21.5 8 21.5H32ZM33.5 12C33.5 12.3978 33.342 12.7794 33.0607 13.0607C32.7794 13.342 32.3978 13.5 32 13.5H8C7.60218 13.5 7.22064 13.342 6.93934 13.0607C6.65804 12.7794 6.5 12.3978 6.5 12C6.5 11.6022 6.65804 11.2206 6.93934 10.9393C7.22064 10.658 7.60218 10.5 8 10.5H32C32.3978 10.5 32.7794 10.658 33.0607 10.9393C33.342 11.2206 33.5 11.6022 33.5 12Z" fill="#00ADB5"/>
</svg>
